<svg version="1.1" id="icon-checkmark" xmlns="http://www.w3.org/2000/svg" xmlns:xlink="http://www.w3.org/1999/xlink" x="0px" y="0px" width="16px" height="14.732px" viewBox="-66.083 -28.662 16 14.732" enable-background="new -66.083 -28.662 16 14.732" xml:space="preserve" aria-labelledby="checkmark-title">
<title  id="checkmark-title">Winner</title>
	<path fill='#489f58' d="M-50.083-27.234c0,0.785-0.355,1.549-1.066,2.293l-0.111,0.111l-6.215,6.546c-1.321,1.388-2.445,2.461-3.374,3.218
		c-0.929,0.758-1.584,1.136-1.966,1.136c-0.402,0-0.902-0.189-1.499-0.568s-0.982-0.77-1.157-1.172
		c-0.147-0.335-0.287-1.046-0.417-2.132c-0.131-1.086-0.196-2.263-0.196-3.53c0-0.69,0.288-1.329,0.865-1.916
		c0.577-0.586,1.213-0.88,1.911-0.88c0.664,0,1.06,0.607,1.187,1.82c0.013,0.141,0.023,0.245,0.03,0.312
		c0.107,0.932,0.231,1.582,0.372,1.951c0.141,0.369,0.332,0.553,0.573,0.553c0.101,0,0.288-0.109,0.563-0.327
		c0.275-0.218,0.604-0.515,0.985-0.89l6.386-6.326c0.536-0.536,1.016-0.942,1.438-1.217s0.781-0.412,1.076-0.412
		c0.221,0,0.378,0.083,0.473,0.251c0.094,0.168,0.141,0.449,0.141,0.845V-27.234z"/>
</svg>
